<?xml version="1.0" encoding="UTF-8"?>
<svg id="_图层_2" data-name="图层 2" xmlns="http://www.w3.org/2000/svg" viewBox="0 0 365.2 365.2">
  <defs>
    <style>
      .cls-1 {
        fill: #950040;
      }
    </style>
  </defs>
  <g id="_图层_1-2" data-name="图层 1">
    <g>
      <g>
        <path class="cls-1" d="M216.09,44.03c-1.05,6.71-6.16,9.32-12.46,8.33-7.02-1.1-11.02-5.05-10.28-9.73l3.09-19.71c.56-3.6-3.58-2.45-3.38-3.71.06-.36.27-.56.99-.44,2.29.36,4.44.79,6.24,1.07,1.8.28,3.98.53,6.27.89.72.11.86.37.81.73-.2,1.26-3.79-1.1-4.36,2.5l-3.09,19.71c-.58,3.69,2.03,7.05,5.77,7.64,4.72.74,8.45-1.81,9.28-7.17l2.14-13.64c.61-3.87-.49-6.3-2.45-7.3-.64-.33-1.31-.48-1.25-.89.04-.27.17-.48.71-.39,1.17.18,2.91.55,4.76.84,1.84.29,3.61.47,4.78.66.54.08.59.32.55.59-.07.41-.75.35-1.46.46-2.18.35-3.96,2.33-4.57,6.2l-2.09,13.37Z"/>
        <path class="cls-1" d="M229.66,50.65c-1.47,3.33-.75,5.3.26,6.39.95,1.02,2.21,1.08,1.9,1.79-.11.25-.28.42-.78.2-1.42-.63-3.01-1.43-4.71-2.18-1.71-.75-3.37-1.39-4.79-2.01-.5-.22-.49-.47-.38-.72.31-.71,1.21.19,2.6.2,1.49,0,3.43-.78,4.9-4.11l8.05-18.21c-.49-2.61-1.42-3.67-2.68-4.42-.63-.38-.92-.51-.72-.97.15-.33.37-.38.7-.24,1.42.63,2.92,1.39,4.46,2.07l4.67,2.06,6.63,25.34.08.04,5.45-12.34c1.47-3.33.75-5.3-.26-6.39-.95-1.02-2.21-1.08-1.9-1.79.11-.25.29-.42.79-.2,1.42.63,3.01,1.43,4.71,2.18,1.71.75,3.37,1.39,4.79,2.01.5.22.49.47.38.72-.31.71-1.21-.19-2.6-.2-1.49-.01-3.43.78-4.9,4.11l-9.48,21.46c-.35.79-.65,1.36-.98,1.21-.38-.17-.45-.79-.6-1.46l-8.03-31.44-.08-.04-7.48,16.92Z"/>
        <path class="cls-1" d="M272.89,50.56c2.12-2.96-2.1-3.8-1.36-4.84.21-.3.49-.38,1.09.05,1.89,1.35,3.62,2.7,5.1,3.76,1.48,1.06,3.31,2.26,5.2,3.61.59.42.61.71.4,1.01-.74,1.04-2.89-2.69-5.01.28l-13.73,19.19c-2.12,2.96,2.1,3.8,1.36,4.84-.21.3-.49.38-1.09-.05-1.89-1.35-3.61-2.7-5.1-3.76-1.48-1.06-3.32-2.26-5.21-3.61-.59-.42-.61-.72-.4-1.01.74-1.04,2.9,2.69,5.02-.28l13.73-19.19Z"/>
        <path class="cls-1" d="M301.64,81.89c.91-.36,1.86-.95,2.59-1.64,3.18-3.01-.28-5.13.55-5.91.16-.16.55-.15.9.22,1.06,1.12,2.03,2.28,3.1,3.4,1.03,1.09,2.13,2.12,3.2,3.24.63.66.87,1.18.57,1.46-.96.91-2.02-2.92-8.62-.36l-24.26,9.37c-.55.21-1.07.39-1.26.19-.19-.2.02-.71.26-1.25l11.76-26.27c1.68-3.79-.93-4.89-.27-5.52.16-.16.49-.15.77.15,1.6,1.69,2.94,3.24,4.38,4.76,1.41,1.49,2.92,2.95,4.33,4.44.56.59.62.92.39,1.14-.69.66-2.03-2.47-3.78-.81-.46.44-.77.98-.97,1.42l-8.34,17.69,14.72-5.73Z"/>
        <path class="cls-1" d="M314.77,92c3.13-1.87-.4-4.32.69-4.98.31-.19.6-.15.98.48,1.19,1.99,2.23,3.92,3.17,5.48,2.9,4.85,5.69,9.44,8.49,14.03l-6.3,6.42c-.49.51-.76.77-.88.84-.2.12-.38.07-.55-.2-.21-.35.48-.71,2.11-3.75,1.95-3.66,2.04-7.16-.76-11.85l-1.26-2.11-11.27,6.72.59.98c1.63,2.74,4.86,3.52,7.77,1.99.81-.43,1.07-.43,1.31-.04.14.24.04.51-.31.72l-11.97,7.15c-.35.21-.64.17-.78-.06-.23-.39-.11-.63.65-1.13,3.39-2.23,4.04-5.33,2.4-8.06l-.58-.98-9.86,5.89c-1.8,1.07-2.32,2.34-.82,4.84,3.64,6.1,9.95,6.8,14.54,5.7.88-.21,1.26-.38,1.47-.03.16.27.04.51-.19.65-.24.14-.75.34-1.23.52l-9.71,3.46c-3.04-5.19-6.11-10.41-9.36-15.85-.93-1.56-2.13-3.4-3.32-5.39-.37-.63-.27-.9.04-1.09,1.09-.65,1.58,3.62,4.71,1.75l20.26-12.1Z"/>
        <path class="cls-1" d="M321.4,143.5c1.88-1.69,2.01-3.97,1.27-6.5l-10.49,3.09c-3.5,1.03-.69,4.29-1.91,4.65-.35.1-.62,0-.82-.71-.66-2.23-1.19-4.35-1.7-6.1-.52-1.75-1.22-3.82-1.88-6.05-.21-.7-.04-.94.31-1.04,1.22-.36.63,3.9,4.12,2.87l22.64-6.67c3.49-1.03.68-4.29,1.91-4.65.35-.1.62,0,.82.71.66,2.23,1.19,4.35,1.7,6.1.64,2.19,1.29,4.04,2.14,6.92,2.2,7.47.06,12.43-4.4,13.74-3.67,1.08-7.4-.29-11.02-9.01l-.09.03c1.38,4.68.99,7.55-1.78,10.22l-5.37,5.15c-2.92,2.81-.41,5.2-1.64,5.56-.26.08-.49.1-.61-.3-.46-1.57-.84-3.17-1.3-4.74l-1.39-4.72,9.5-8.55ZM323.46,136.77l.5,1.7c1.45,4.94,4.54,6.4,9.18,5.04,4.81-1.42,6.12-4.37,5.03-8.08l-.81-2.75-13.9,4.1Z"/>
        <path class="cls-1" d="M327.37,164.15c.55-.03.69.15.7.42.02.46-.66.49-1.61.72-5.72,1.37-11.4,3.93-11.07,10.57.22,4.64,2.72,7.16,6.22,7,9.19-.44,3.81-18.43,15.09-18.97,5.37-.26,9.59,4.1,9.87,9.74.2,4.28-1.5,6.64-1.44,7.91.08,1.59,1.32.85,1.36,1.67.02.32-.11.51-.79.59l-8.56,1.23c-.86.13-1.27.2-1.49.21-.32.02-.46-.11-.47-.34-.02-.46.93-.55,2.71-1.37,4.95-2.24,7.84-4.85,7.6-9.9-.16-3.23-1.69-5.71-5.15-5.54-7.46.36-2.43,18.64-14.76,19.23-6.05.29-10.94-4.58-11.27-11.45-.22-4.5,1.77-6.74,1.69-8.52-.09-1.77-1.62-1.43-1.66-2.2-.01-.23.07-.37.39-.38l12.65-.61Z"/>
        <path class="cls-1" d="M341.44,200.51c3.61.49,2.37-3.63,3.64-3.46.36.05.56.26.47.98-.31,2.3-.69,4.46-.93,6.26-.24,1.81-.44,3.99-.75,6.29-.1.72-.35.87-.71.82-1.26-.17,1.02-3.82-2.59-4.3l-23.39-3.14c-3.61-.49-2.37,3.63-3.64,3.46-.36-.05-.56-.26-.47-.98.31-2.3.69-4.46.93-6.26s.44-3.99.75-6.29c.09-.72.35-.87.71-.82,1.26.17-1.02,3.82,2.59,4.3l23.39,3.14Z"/>
        <path class="cls-1" d="M337.61,230.96c.54-9.33-5.96-12-5.63-13,.07-.22.26-.34.56-.24.17.06.83.38,1.48.74l7.42,4.08c.6.35.73.53.66.75-.07.22-.26.34-.51.5-.2.17-.56.39-.76.99l-6.5,19.35c-.2.61-.05.99,0,1.25.1.28.17.49.1.71-.07.22-.29.29-.98.2l-8.38-1.23c-.74-.1-1.46-.25-1.63-.31-.3-.1-.37-.32-.3-.53.33-.99,7.13.81,12.33-6.96l-23.92-8.04c-2.76-.93-3.82.21-4.53,2.32-.17.52-.39.73-.82.59-.35-.12-.4-.38-.24-.85.83-2.46,1.65-4.63,2.34-6.66.68-2.03,1.34-4.26,2.16-6.72.16-.47.36-.65.7-.53.43.14.47.45.3.97-.71,2.12-.56,3.66,2.2,4.59l23.92,8.04Z"/>
        <path class="cls-1" d="M306.9,262.89l3.46,6.34c1.15,2.11,2.65,3.58,3.69,4.24,2.59,1.62,3.7-1.02,4.32-.64.23.14.28.5-.06,1.04-.77,1.24-1.43,2.12-2.39,3.66-.75,1.2-1.44,2.48-2.16,3.64-.17.27-.42.33-.65.18-.77-.48,1.4-1.65-2.45-9.15l-4.77-9.31-9.32-5.81c-3.09-1.93-3.65,2.34-4.74,1.66-.31-.19-.41-.47-.02-1.09,1.23-1.97,2.46-3.78,3.43-5.33.97-1.55,2.04-3.45,3.27-5.42.38-.62.68-.65.98-.46,1.08.67-2.5,3.06.59,4.99l8.58,5.35,15.21.84c4.09.24,4.43-2.55,5.25-2.04.27.17.28.5.02.92-1.18,1.9-2.37,3.63-3.5,5.44-1.13,1.82-2.16,3.64-3.3,5.46-.36.58-.64.78-.92.61-.81-.51,1.63-2.36-.53-3.71-.66-.41-1.42-.56-2.6-.65l-11.39-.76Z"/>
      </g>
      <g>
        <path class="cls-1" d="M67.87,272.42c-.45.3-.67.23-.82,0-.25-.38.32-.76,1.01-1.44,4.21-4.12,7.75-9.23,4.06-14.76-2.58-3.87-6.02-4.75-8.94-2.8-7.65,5.11,6.22,17.76-3.18,24.04-4.47,2.99-10.34,1.42-13.47-3.27-2.38-3.56-2.13-6.47-2.84-7.53-.89-1.33-1.57-.05-2.02-.73-.18-.26-.17-.49.38-.91l6.71-5.46c.67-.56.98-.82,1.17-.95.27-.18.46-.14.58.05.25.38-.52.95-1.63,2.57-3.09,4.47-4.23,8.19-1.42,12.4,1.8,2.69,4.39,4.03,7.27,2.1,6.21-4.15-7.51-17.23,2.76-24.09,5.04-3.36,11.74-1.7,15.56,4.02,2.51,3.75,1.95,6.69,2.94,8.17.99,1.48,2.12.39,2.55,1.03.13.19.13.35-.14.53l-10.53,7.03Z"/>
        <path class="cls-1" d="M35.29,245.47c-3.45,1.16-.52,4.31-1.73,4.72-.35.11-.62.02-.85-.68-.74-2.2-1.35-4.3-1.93-6.03-.58-1.73-1.37-3.77-2.1-5.97-.23-.69-.08-.94.27-1.05,1.21-.41.77,3.87,4.23,2.71l9.93-3.34-3.81-11.31-9.93,3.34c-3.45,1.16-.52,4.31-1.73,4.72-.34.12-.62.02-.85-.68-.74-2.2-1.35-4.3-1.93-6.03-.58-1.73-1.37-3.77-2.11-5.97-.23-.69-.08-.94.27-1.05,1.21-.41.78,3.87,4.23,2.71l22.37-7.53c3.45-1.16.52-4.31,1.73-4.72.35-.12.62-.02.85.67.74,2.2,1.35,4.3,1.93,6.03.58,1.73,1.37,3.77,2.1,5.97.24.69.08.94-.27,1.05-1.21.41-.78-3.87-4.23-2.71l-11.4,3.83,3.81,11.31,11.4-3.84c3.46-1.16.52-4.31,1.73-4.72.35-.12.62-.02.85.67.74,2.2,1.35,4.3,1.93,6.03.58,1.73,1.37,3.77,2.1,5.97.23.69.08.94-.27,1.05-1.21.41-.77-3.87-4.23-2.71l-22.37,7.53Z"/>
        <path class="cls-1" d="M23.64,200.54c-3.64.18-1.67,4-2.95,4.07-.36.02-.6-.15-.64-.88-.11-2.32-.13-4.51-.21-6.33-.28-5.64-.59-11.01-.89-16.38l8.58-2.7c.68-.22,1.03-.32,1.17-.33.23,0,.37.12.39.44.02.41-.75.4-3.63,2.32-3.44,2.31-5.16,5.36-4.9,10.82l.12,2.46,13.1-.64-.05-1.14c-.15-3.18-2.64-5.39-5.92-5.41-.91,0-1.15-.13-1.17-.58-.02-.27.2-.47.61-.49l13.92-.68c.41-.02.64.15.66.42.02.45-.2.6-1.1.69-4.04.38-6.07,2.8-5.91,5.99l.06,1.14,11.47-.56c2.09-.1,3.15-.97,3-3.89-.35-7.1-5.58-10.68-10.16-11.87-.88-.23-1.29-.26-1.31-.67-.02-.32.2-.47.48-.48.27-.01.82.05,1.33.12l10.2,1.51c.25,6.01.5,12.06.81,18.39.09,1.82.29,4,.4,6.32.03.73-.18.92-.55.94-1.27.06.31-3.94-3.33-3.76l-23.57,1.15Z"/>
        <path class="cls-1" d="M44.21,162.67c3.56.78,5.34-.32,6.22-1.53.81-1.13.62-2.38,1.37-2.22.26.06.47.2.35.73-.33,1.51-.8,3.23-1.2,5.05-.4,1.82-.69,3.58-1.02,5.09-.12.53-.36.57-.63.52-.75-.17-.06-1.23-.32-2.59-.28-1.46-1.44-3.21-5-3.99l-19.44-4.26c-2.46,1-3.31,2.12-3.8,3.5-.25.69-.31,1-.81.9-.36-.08-.45-.29-.37-.64.33-1.51.78-3.14,1.14-4.79l1.09-4.98,23.52-11.54.02-.09-13.17-2.89c-3.56-.78-5.34.32-6.22,1.53-.81,1.13-.61,2.38-1.37,2.22-.26-.06-.47-.2-.35-.73.33-1.51.8-3.23,1.2-5.05.4-1.82.69-3.58,1.03-5.09.11-.53.36-.57.62-.52.76.17.06,1.23.32,2.59.29,1.46,1.44,3.21,5,3.99l22.92,5.02c.85.18,1.46.37,1.38.72-.08.4-.69.59-1.31.88l-29.21,14.12-.02.09,18.07,3.96Z"/>
        <path class="cls-1" d="M61.18,127.23c2.2-4.7,1.37-8.62-.35-11.59-1.75-3.03-4.24-4.15-3.91-4.86.08-.16.3-.31.63-.16.25.12.81.53,1.52,1.06l7.91,5.77c-1.59,3.28-3.22,6.64-4.81,10.03-1.59,3.38-3.09,6.8-4.68,10.18-.15.33-.44.4-.6.32-.21-.1-.42-.4-.78-.92l-18.56-27.48-1.16,2.47c-2.15,4.58-1.83,8.3.46,11.79,2.05,3.13,2.7,3.03,2.45,3.57-.12.25-.28.27-.48.18-.13-.06-.42-.3-.96-.75l-6.91-5.76c1.39-2.97,2.89-5.94,4.32-8.99,1.43-3.05,2.76-6.1,4.24-9.24.25-.53.43-.6.64-.5s.53.6.95,1.2l18.5,27.05,1.59-3.38Z"/>
        <path class="cls-1" d="M50.1,92.62c-2.84-2.28-3.91,1.89-4.9,1.09-.29-.23-.35-.51.11-1.08,1.45-1.81,2.89-3.46,4.03-4.88,1.14-1.42,2.44-3.18,3.89-5,.46-.57.75-.57,1.03-.34.99.8-2.84,2.74,0,5.02l8.17,6.56,7.47-9.31-8.17-6.56c-2.84-2.28-3.91,1.89-4.9,1.09-.28-.23-.35-.51.11-1.08,1.45-1.81,2.89-3.46,4.03-4.88,1.14-1.42,2.44-3.18,3.89-5,.46-.57.75-.57,1.03-.34.99.8-2.84,2.74,0,5.02l18.41,14.76c2.84,2.28,3.91-1.89,4.9-1.09.28.23.35.51-.11,1.08-1.45,1.81-2.89,3.46-4.03,4.88-1.14,1.42-2.44,3.18-3.89,5-.45.57-.75.57-1.03.34-.99-.8,2.84-2.74,0-5.02l-9.38-7.52-7.47,9.31,9.38,7.52c2.84,2.28,3.91-1.89,4.9-1.09.29.23.35.51-.11,1.08-1.46,1.81-2.89,3.46-4.04,4.88-1.14,1.42-2.43,3.18-3.89,5-.46.57-.75.57-1.03.34-1-.8,2.84-2.74,0-5.02l-18.41-14.76Z"/>
        <path class="cls-1" d="M81.58,58.55c-2.12-2.96-4.27.76-5.01-.28-.21-.3-.2-.59.4-1.01,1.89-1.35,3.72-2.55,5.2-3.61,4.6-3.29,8.94-6.45,13.29-9.62l6.92,5.75c.54.45.83.69.91.8.14.19.1.38-.16.56-.33.24-.75-.42-3.92-1.79-3.81-1.64-7.3-1.44-11.75,1.74l-2,1.43,7.63,10.67.93-.66c2.59-1.86,3.1-5.13,1.35-7.91-.5-.77-.52-1.03-.15-1.3.22-.16.5-.08.74.25l8.11,11.34c.24.33.22.62,0,.78-.37.26-.61.16-1.18-.56-2.5-3.19-5.64-3.58-8.23-1.73l-.92.66,6.68,9.34c1.22,1.7,2.52,2.12,4.89.42,5.78-4.13,5.95-10.47,4.48-14.96-.28-.86-.48-1.22-.15-1.46.26-.18.5-.08.66.14.16.22.41.72.62,1.18l4.25,9.39c-4.92,3.46-9.87,6.95-15.02,10.63-1.48,1.06-3.21,2.41-5.1,3.76-.59.42-.87.35-1.09.05-.74-1.04,3.48-1.87,1.36-4.84l-13.73-19.19Z"/>
        <path class="cls-1" d="M123.75,55.75c1.29,3.41,3.18,4.3,4.67,4.37,1.39.06,2.33-.78,2.61-.06.09.26.09.5-.42.7-1.45.55-3.15,1.09-4.89,1.75-1.75.66-3.38,1.37-4.83,1.92-.51.19-.68.01-.77-.24-.27-.72,1-.72,2-1.68,1.07-1.04,1.9-2.96.62-6.37l-7.03-18.63c-2.18-1.52-3.58-1.62-5.01-1.28-.71.17-1.01.28-1.19-.18-.13-.34,0-.53.34-.66,1.45-.55,3.06-1.06,4.63-1.65l4.77-1.8,22.5,13.42.09-.03-4.76-12.62c-1.29-3.41-3.18-4.3-4.67-4.37-1.39-.06-2.33.78-2.61.06-.1-.26-.09-.5.42-.7,1.45-.55,3.15-1.09,4.89-1.75,1.75-.66,3.37-1.37,4.83-1.92.51-.19.68-.01.77.24.27.72-.99.72-2,1.68-1.07,1.04-1.9,2.96-.62,6.37l8.28,21.95c.31.81.49,1.42.15,1.55-.38.14-.87-.25-1.45-.62l-27.76-16.79-.09.03,6.53,17.31Z"/>
      </g>
      <path class="cls-1" d="M105.54,308.61c0,2.36-1.91,4.27-4.27,4.27s-4.27-1.91-4.27-4.27,1.91-4.27,4.27-4.27,4.27,1.91,4.27,4.27Z"/>
      <path class="cls-1" d="M267.84,308.61c0,2.36-1.91,4.27-4.27,4.27s-4.27-1.91-4.27-4.27,1.91-4.27,4.27-4.27,4.27,1.91,4.27,4.27Z"/>
      <g>
        <path class="cls-1" d="M134.58,333.96c-.61,1.81.2,3.14,2.62,4.1,2.29.91,2.76,1.07,2.54,1.72-.08.26-.39.45-.86.29-2.94-.98-5.9-2.03-8.68-2.91-2.95-.94-5.94-1.9-8.88-2.88-.48-.16-.61-.49-.52-.75.22-.65.69-.49,3.07.16,2.51.7,3.95.12,4.55-1.69l6.76-20.17c.33-.99.15-1.3-.63-1.56l-5.87-1.97c-.39-.13-.55-.38-.45-.68.22-.65.98-.06,4.85.71,5.81,1.17,8.63-.38,9.49-.09.39.13.49.4.25,1.14l-8.23,24.58Z"/>
        <path class="cls-1" d="M166.38,313.05c7.47.8,11.38,7.08,10.57,14.65-1.4,13.09-18.47,16.3-20.5,16.09-.23-.02-.25-.17-.23-.39.06-.54,9.65-1.95,13.38-12.86-1.89.94-3.83,1.51-6.27,1.25-7.38-.79-10.09-5.85-9.61-10.38.58-5.44,5.01-9.18,12.67-8.36ZM164.71,330.83c2.17.23,4.73-.96,5.33-1.9.22-.34.69-2.13.88-3.98.88-8.2-1.46-10.74-4.81-11.1-2.59-.28-5.38.98-6.12,7.96-.67,6.2,1.77,8.71,4.71,9.03Z"/>
        <path class="cls-1" d="M190.39,329.44c-2.85-1.77-4.14-3.99-4.34-6.35-.42-4.9,3.96-9.21,10.27-9.76,5.22-.45,9.4,2.39,9.74,6.34.23,2.68-1.01,5.3-3.06,6.99,3.55.88,5.83,3.98,6.16,7.84.45,5.22-4.36,9.84-11.81,10.48-6.4.55-10.95-2.9-11.35-7.57-.22-2.59,1.14-5.81,4.39-7.97ZM197.28,344.16c4.54-.39,6.65-3.46,6.35-6.9-.21-2.45-1.38-4.36-6.39-5.71-4.73-1.28-5.13-1.66-5.76-1.61-.82.07-2.88,2.63-2.55,6.53.42,4.9,3.44,8.12,8.35,7.69ZM196.43,314.14c-3.18.28-5.17,2.55-4.9,5.77.4,4.63,7.44,5.67,10.71,6.44.99-1.27,1.7-2.61,1.43-5.7-.4-4.68-3.24-6.85-7.24-6.51Z"/>
        <path class="cls-1" d="M232.63,318.15c3.35,1.1,6.14,2.86,7.24,6.38,1.83,5.87-2.41,12.16-8.76,14.14-6.17,1.93-11.07.31-12.04-2.78-.53-1.7.2-3.64,1.98-4.2,2.22-.69,3.58.31,4.59,3.24,1.03,3.02,3.04,3.63,5.13,2.98,3.52-1.1,5.27-4.51,3.86-9.03-1.14-3.65-3.94-5.59-6.86-5.64-1.92-.02-3.55,1.01-3.76.36-.3-.96,1.7-.53,3.52-2.34,1.23-1.24,1.45-3.46.7-5.85-1-3.22-3.75-4.37-7.27-3.27-4.65,1.45-4.04,5.08-4.87,5.34-.22.07-.4-.06-.47-.28-.35-1.13,1.02-7.14,7.02-9.01,4.31-1.34,9.3-.18,10.76,4.52.63,2,.2,3.56-.78,5.44Z"/>
      </g>
      <path class="cls-1" d="M182.6,365.2c-24.65,0-48.56-4.83-71.08-14.35-21.74-9.2-41.27-22.36-58.04-39.13-16.77-16.77-29.93-36.29-39.13-58.04C4.83,231.17,0,207.25,0,182.6s4.83-48.56,14.35-71.08c9.2-21.74,22.36-41.27,39.13-58.04,16.77-16.77,36.3-29.93,58.04-39.13C134.04,4.83,157.95,0,182.6,0s48.56,4.83,71.08,14.35c21.75,9.2,41.27,22.36,58.04,39.13,16.77,16.77,29.93,36.3,39.13,58.04,9.52,22.51,14.35,46.43,14.35,71.08s-4.83,48.56-14.35,71.08c-9.2,21.75-22.36,41.27-39.13,58.04-16.77,16.77-36.29,29.93-58.04,39.13-22.51,9.52-46.43,14.35-71.08,14.35h0ZM182.6,6.41C85.45,6.41,6.41,85.45,6.41,182.6s79.04,176.19,176.19,176.19,176.2-79.04,176.2-176.19S279.75,6.41,182.6,6.41h0Z"/>
      <g>
        <path class="cls-1" d="M151.15,198.16c.36.24.69.33,1.31.31,1.29-.04,2.07-.78,2.4-.93.13-.06.48-.27.48-.35-.03-.55-1.88-1.26-2.82-1.31-1.13-.05-2.91.97-2.91,1.26,0,.34,1.17.86,1.53,1.02Z"/>
        <path class="cls-1" d="M162.09,220.79c.53-2.69-.42-1.97-6.04-2.16-2.56,0-11.51-.23-14.08.13-1.17.16-1.32,1.12-1.32,1.7,0,1.94-.49,1.72,9.13,1.73l3.75-.29c6-.32,7.52.39,8.56-1.11Z"/>
        <path class="cls-1" d="M259.48,134.42c0,2.44,1.03,4.64,2.67,6.2l.06.07,28.93,28.93h0c1.55,1.55,2.51,3.69,2.51,6.06v-36.19c0-1.69-.98-4.06-2.18-5.26l-60.69-60.69c-1.2-1.2-3.57-2.18-5.26-2.18h-4.47c-1.18,0-2.14.96-2.14,2.13v28.83c0,1.77-1.43,3.2-3.2,3.2h-3.21v-27.76c0-3.54-2.87-6.41-6.41-6.41h-46.98c-3.54,0-6.41,2.87-6.41,6.41v27.76h-3.21c-1.76,0-3.19-1.44-3.19-3.2v-28.83c0-1.18-.96-2.13-2.14-2.13h-4.47c-1.7,0-4.06.98-5.26,2.18l-60.69,60.69c-1.2,1.2-2.18,3.57-2.18,5.26v36.2c0-2.37.96-4.51,2.51-6.05h0s28.93-28.94,28.93-28.94l.05-.07c1.65-1.56,2.67-3.76,2.67-6.2v6.03c0,2.37-.96,4.51-2.51,6.05h0s-28.93,28.94-28.93,28.94l-.06.07c-1.64,1.56-2.67,3.76-2.67,6.2v32.75c0-2.37.96-4.51,2.51-6.05h0s28.93-28.94,28.93-28.94l.05-.07c1.65-1.56,2.67-3.76,2.67-6.2v6.03c0,2.37-.96,4.5-2.51,6.05h0s-28.93,28.94-28.93,28.94l-.06.07c-1.64,1.56-2.67,3.76-2.67,6.2v4.82c0,1.69.98,4.06,2.18,5.26l8.47,8.48,20.79-20.79.05-.07c1.65-1.56,2.67-3.76,2.67-6.2v6.03c0,2.36-.96,4.5-2.51,6.05h0s-17.98,17.99-17.98,17.99l48.69,48.7,13.17-23.7c1.13-2.09,3.34-3.51,5.88-3.51h5.09c-2.59,0-4.84,1.47-5.94,3.63h0s-14.41,25.92-14.41,25.92c.69.22,1.38.34,1.98.34h24.99l4.77-26.35c.36-2.02,2.12-3.55,4.24-3.55h4.37c-2.13,0-3.9,1.55-4.25,3.58l-4.77,26.31h27.11l-4.77-26.31c-.35-2.03-2.12-3.58-4.25-3.58h4.37c2.12,0,3.88,1.53,4.24,3.55l4.77,26.35h24.99c.6,0,1.3-.13,1.98-.34l-14.41-25.93h0c-1.11-2.15-3.36-3.63-5.95-3.63h5.09c2.54,0,4.76,1.42,5.88,3.51l13.17,23.7,48.7-48.7-17.98-17.99h0c-1.55-1.55-2.51-3.69-2.51-6.06v-6.03c0,2.44,1.03,4.64,2.67,6.2l.06.07,20.79,20.79,8.48-8.48c1.2-1.2,2.18-3.57,2.18-5.26v-4.82c0-2.44-1.03-4.64-2.67-6.2l-.06-.07-28.93-28.93h0c-1.55-1.55-2.51-3.69-2.51-6.06v-6.03c0,2.44,1.03,4.64,2.67,6.2l.06.07,28.93,28.93h0c1.55,1.55,2.51,3.69,2.51,6.06v-32.75c0-2.44-1.03-4.64-2.67-6.2l-.06-.07-28.93-28.93h0c-1.55-1.55-2.51-3.69-2.51-6.06v-6.03ZM206.31,136.4c.94-8.92,1.16-8,6.11-9.86,5.91-1.07,9.11-2,12.19-1.91,3.08.09,9.96.27,16.29,2.69,2.72.97,1.62,1.88,1.76,12.12-.43,3.85-.75,3.22-4.7,3.6-3.24-.09-4.98.19-9.19-.98-1.37-1.69-3.05-10.88-6.15-9.75-1.29.97,0,1.11-2.23,5.56-.46.7-1.23,2.88-2.05,3.81-3.17,1.46-5.9,1.03-9.5,1.16-3.35-.12-2.49-1.74-2.53-6.44ZM200.01,128.85c.09-1.85-.02-2.32,1.52-2.43,2.46-.06,2.43.83,2.63,2.08-.03,1.96-.08,5.96-.13,9.72-.02,2.2,0,6.87-1.72,7.53-1.94.27-3.1.46-2.98-1.73-.15-1.27.54-3.23.86-5.23.33-2,.04-7.56-.2-9.94ZM201.14,151.58c2.25.91,2.38,7.96,2.38,7.96.05.95.21,7.08.21,9.19.07,2.05.16,3.57-.16,4.45-.72.57-1.54.7-2.82.44-1.02-.6-1.56-6.05-1.56-7.87s-.05-6.02-.58-10.1c-.53-4.08-.08-3.61,2.53-4.07ZM192.64,147.78c.24-3,1.11-13.32.76-15.95.08-1.71-.18-4.14.37-6.01.25-.86,1.13-.98,2.61-1.12,2.41-.46,1.89,7.94,1.89,7.94-.22,7.28-2.17,21.57-2.17,25.33-.73,6.15,2.19,22.53.57,24.06-.53.26-2.57.59-3.08-.44-1.54-4.43-1.64-11.23-1.91-17.02-.41-6.54.72-13.78.96-16.79ZM186.34,138.25c.71-4.41.37-9.44.76-10.79.41-.44,1.57-.76,2.94-.45,1.63,1.16,2.15,15.43-1.48,18.27-1.07.01-2.38.14-2.8-.62-.53-.98.04-3.2.57-6.4ZM184.41,157.43c0-5.75.59-6.73,1.71-8.43,1.24-.62,2.87.24,3.43.94.8,2.02-.56,12.15-.74,16.65-.3,4.48,1.15,9.01-.63,9.76-1.89.64-3.2.07-3.35-1.22-.65-5.41-.42-17.7-.42-17.7ZM179.24,227.73c-.31,7.51-.47,6.8-5.68,6.8-4.54,0-15.85.02-16.6.09,0,1.05-.29,3.37-.15,5.49.17,2.93,1.84,3.69-10.15,4.92-2.83.25-20.95-.45-22.13-2.59-1.32-2.2-3.54-5.75-1.84-8.8,2.56,2.02,4.99,3.59,10.49,5.57,4.4.77,11.55,1.42,15.22.34,2.59-1.06,2.51-1.82,2.36-4.62-8.45-.52-12.95-.74-15.76-.91-4.64-.56-4.39-.5-4.47-2.82.23-1.86.7-2.32,3.71-2.14,1.68.24,5.25.5,10.1.5h6.41v-3.72s-6.51.25-8.92.12c-7.67-.33-6.44-1.42-6.83-4.91.65-6.25.64-5.41,6.3-5.79,4.86-.09,18.6-.34,22.16-.22,5.56.52,4.82.91,4.73,5.85-.56,2.82.48,3.8-5.02,4.61-.99,0-6.26.4-6.26.4v3.66h12.38s4.4-.07,4.4-3.73.52-9.17.52-9.17c0,0-.06-3.91-3.85-3.91s-24.5-.31-32.98-.17c-6.58.05-6.72,1.11-7.28,3.38-.62,2.54-1.1,13-3.05,12.58-4.94-1.23-3.82-1.77-3.76-4.66.21-3.91.88-7.93,1.58-11.78,1.06-2.74,1.52-4.22,17.71-4.12,7.46,0,29.34-.03,29.34-.03,4.94.31,6.64.25,7.32,5.05.56,7.02.26,9.25,0,14.72ZM130.58,194.65c0,1.17,1.95.99,5.78.86,3.35,0,3.15-.72,3.28,2.03,0,1.05.11,1.29-2.15,1.37-7.74.39-7.06.2-7.05,2.02.07,1.54,1.32,1.2,6,.95,3.04-.13,3.26-.59,3.49,1.46.14,1.28-.07,2.15-.07,2.15-2.22,0-10.72.87-12.82.64-2.25-.31-2.24-.12-2.11-4.65.29-4.07.46-7.94,1.34-11.37.98-2.06,1.11-1.65,9.72-2.02,4.56.05,4.07-.28,4.43,2.76.09,1.12.31,1.34-7.09,1.77-3.36-.07-2.82-.34-2.74,2.01ZM143.36,190.49c-.43-.23,1.08-2.47,1.96-2.64,1.08.16,4.02,1.91,4.92,2.23.28.1,1.19.49,2.34,1.1.56-.26.99-.47,1.22-.61.95-.58,5.38-3.05,6.58-2.99.35.23,2.03,2.79.87,3.48-1.47.95-3.11,2.16-4.21,2.59,1.31.71,2.35,1.27,2.59,1.4,1.84.91,2.22,1.32,2.02,3.18-.21.36-1.01,1.01-1.43,1.2-.97.43-1.79,1-2.82,1.45.8.37,1.61.77,2.37,1.16,3.41,1.95,3.23,1.48,2.21,3.25-1.31,1.82-3.16.85-4.01.49-.43-.21-3.11-1.27-5.53-2.59-1.5.86-3.39,1.87-5.15,2.62-2.37,1.08-2.77,1.17-3.6,0-1.43-2.09-.56-1.99,1.87-3.45.24-.12,1.43-.69,2.3-1.3-1.05-.55-2.26-.99-3.53-1.8-.33-.17-1.3-.73-1.39-1.34,0-.89-.36-1.84,2.32-3.28.86-.44,1.57-.78,2.37-1.16-1.73-.88-3.68-1.9-4.29-2.98ZM178.08,205.51c-1.8.36-12.11.64-12.31.59-.97-.1-1.11.04-1.07-1.36-.04-2.01.11-2.21,3.57-2.15,3.37.08,6.01.34,6.01-1.67,0-1.53-.39-1.84-5.88-1.64-3.15.1-3.01.02-3.14-.63-.39-1.93-.84-3.05,1.9-3.2,3.83-.35,7-.04,7.21-.96.37-1.65-.04-2.23-3.05-2.03-6.37.43-6.71.92-6.77-1.11,0-1.97-.82-2.51,4.25-2.81,5.16-.1,9.32-.73,9.68,1.6.88,2.74.93,6.36,1.08,11.68.1,3.55-.1,3.45-1.49,3.69ZM177.23,183.7c-1.75.92-8.33-8.08-12.92-13.94-1.59-2.03-7.44-7.06-12.64-7.35-7.81-.44-18.57,13.4-21.27,18.14-1.36,2.1-2.91,4.21-5.22,3.14-2.11-1.35-2.05-1.3-.83-4.83,2.22-5.25,11.91-15.87,16.06-18.85,4.41-4.11,5.5-4.66,6.9-9.56.7-8.94.45-11.05-2.15-11.51-2.56-.29-14.13-1.95-14.59,5.21-.4,6.08-.37,8.76-.4,11.21.02,3.62-.28,3.05-3.88,3.06-2.35,0-1.13-12.2-1.13-20.42,1.27-5.01,4.3-4.08,9.25-4.47,2.56.28,5.93-.01,7.74-.01,4.14,0,5.11-2.12,5.36-5.43.27-3.45.63-3.58,3.53-4.04,2.59-.42,2.34,1.58,2.87,4.19.92,4.05-.44,4.36,5.39,4.65,4.99,0,8.78.11,10.92.29,4.85.47,7.5-.01,7.82,7.44.16,6.26,1.76,12.17-.16,14.48-.81.98-3.03,2.14-4.64,1.85-2.02-1.09,2.22-14.93-3.02-17.28-3.11-1.4-11.79-1.41-14.31-.22-2.4,1.13-1.42,6.08-1.65,9.6,0,2.8-.02,5.74,5.7,9.47,5.77,4.24,11,9.61,16.29,15.92,3.15,3.34,5.94,7.71.96,9.26ZM180.46,105.52h-25.63c0-3.54,2.87-6.41,6.41-6.41h16.02c1.77,0,3.2,1.43,3.2,3.2v3.2ZM204.92,216.38c-1.02.99-4.69,1.48-5.47,2.64-.78,1.16-.53,9.63.02,10.21.64.73,2.38.25,4.99.01,1.98-.04,2.67,6.12,1.15,6.3-1.55.29-7.18.89-10.16,1.21-3.19.39-5.01.62-8.06.6-2.84-.03-2.8-1.51-3.08-3.66,0-2.44-.27-3.29,2.07-3,2.29.08,3.85.37,5.89-1.39,1.51-1.22.63-4.41.84-6.81-.08-2.15.51-4.11-2.54-3.34-4.29,1-4.53,1.68-4.51-5.61,0-2.6-.05-5.08.11-6.82.25-3.5-.53-5.29,3.89-6.2,1.9-.41.87,5.36.86,8.05-.02,2.57-.35,5.29,1.09,5.29,3.62.25,1.53-7.87,1.78-14.69.15-4.53-.8-6.58,2.77-7.24,3.16-.45,2.43.73,2.58,4.46.05,3.55-.16,15.81,1.37,15.7,3.02-.22,2.46-10.58,2.26-12.4-.08-2.78-.56-3.99,2.26-4.22,2.18-.09,2.23-.26,2.65,2.22.41,2.6.47,5.04.47,7-.2,2.54-.32,3.86-.83,6.58-.41,3-1.4,4.12-2.42,5.11ZM218.22,244.5c-1.56.36-2.18.35-4.22,0-1.41-.24-2.11-1.88-3.3-5.58-.56-2.01-1.08-3.96-2.03-8.69-.56-5.29-1.22-9.56-.14-12.29.53-1.97,1.69-4.84,2.84-7.11.93-2.23,1.78-3.86,2.82-7.81.69-3.79.67-4.15-.02-7.39-.21-1.29-1.12-2.96-1.77-4.71-1.05-2.29-1.71-3.43.92-3.75,3.81-.28,3.52.14,5.25,2.68,1.81,4.17,1.83,5.76,1.92,7.1.4,3.15.25,6.72-2.75,13.34-2.89,5.72-4.07,8.07-3.68,13.52.44,6.07,1.8,12.59,2.62,14.84.62,1.72,2.76,5.55,1.54,5.83ZM227.52,236.07c1.15,4.04,3.78,7.56,2.07,8.01-1.35.32-3.75.16-4.54-.7-1.64-1.78-3.11-5.05-4.13-10.33-.76-5.65-1.29-9.19-.71-14.35,1.76-7.67,5.65-10.05,6.28-16.45.38-4.11-.08-5.36-.69-7.13-1.06-3.06-4.66-7.77-.49-7.77,2.56,0,2.61.35,3.62,1.13,1.61,1.25,3.41,6.73,3.7,9.9.4,4.71-1.78,9.43-3.37,13.53-1.8,4.63-3.62,7.24-3.6,11.77.26,3.15.58,7.22,1.87,12.39ZM242.3,207.16c-2.1,7.82-3.91,6.91-5.4,15.57,0,3.31,1.75,10.59,2.48,13.25.49,2.53,2.93,7.52,1.71,7.9-1.23.38-3.97-.27-4.93-1-1.42-1.1-2.59-6.17-3.19-7.93-1.14-4.96-3.04-13.58.56-20.56,1.03-2.24,2.71-5.19,3.69-10.85.04-7.69-.42-8.61-1.53-12.17-.83-2.1-1.97-3.72-.05-3.82,5.71,0,4.98,1.71,6.62,5.53,1.01,4.5,1.13,6.27.03,14.09ZM240.9,180.83c-3.12,1.11-2.84-.42-2.98-4.8-.12-2.86.25-11.81-3.67-13.1-3.34-1.6-6.49-1.71-7.21-.66-.53.79-.31,16.54-.31,16.54.07,3.71-1.58,3.13-3.25,2.88-3.15-.83-2.81-2.65-2.76-5.59.05-2.94.06-13.55-.47-14.12-.47-.51-6.52-.86-7.52,5.47-.96,6.01-1.63,10.04-1.85,11.32-.14.78-.3,1.8-.88,1.99-1.13.36-3.35.86-3.77.25-.64-2.28-.04-5.65.34-9.45.7-3.97,1.66-6.88,2.86-10.37.44-2.29,6.63-3.85,10.15-5.34,2.08-.56,1.48-3.78.81-3.86-1.09-.27-5.21.33-7.77.61-1.82-.02-3.43,1.41-4.82-1.71-.7-1.57-1.01-2.92,3.27-3.14l5.56-.46s3.97-.12,4.22-.79c.02-1.03.21-2.95,1.15-4.51.29-.49,1.92-.26,2.91-.18,2.11.61,1.31.7,1.69,3.33.12,1.2-.31,1.52,6.67,1.35,4.91-.16,8.53-.73,8.37,1.25.05.96.07,2.97-.42,3.48-.71.74-2.1.42-4.41.55-3.43.03-9.01.21-9.83.32-.52.25-.46,1.26-.22,2.31.32.74-.19.88,3.05,1.62,10.74,3.14,10.62,2.49,12.31,9.46,1.02,5.88.89,9.13.95,10.92-.07,2,.73,3.39-2.19,4.42Z"/>
        <path class="cls-1" d="M234.49,137.32l2.6-.15c1.36-.31,1.2-2.31.42-5.22-.85-1.74-3.3-1.63-5.67-1.58-.95.05-1.65.2-1.34,1.69.95,5.77,1.2,4.88,3.99,5.26Z"/>
        <path class="cls-1" d="M211.92,137.67l1.87-.14c3.78-.26,3.56-2.31,4.01-5.47.22-1.26-1.9-.98-3.96-.6-1.96.38-2.02.29-2.4,1.73-.36,1.37-.88,4.09.47,4.49Z"/>
      </g>
    </g>
  </g>
</svg>